<svg xmlns="http://www.w3.org/2000/svg" xmlns:xlink="http://www.w3.org/1999/xlink" width="128" height="128" enable-background="new" version="1.0"><defs><linearGradient id="g"><stop offset="0" style="stop-color:#fff;stop-opacity:1"/><stop offset="1" style="stop-color:#fff;stop-opacity:0"/></linearGradient><linearGradient id="f"><stop offset="0" style="stop-color:#f0ff80;stop-opacity:1"/><stop offset="1" style="stop-color:#f0ff80;stop-opacity:0"/></linearGradient><linearGradient id="e"><stop offset="0" style="stop-color:#fff;stop-opacity:1"/><stop offset="1" style="stop-color:#fff;stop-opacity:0"/></linearGradient><linearGradient id="d"><stop offset="0" style="stop-color:#001400;stop-opacity:1"/><stop offset="1" style="stop-color:#001400;stop-opacity:0"/></linearGradient><linearGradient id="c"><stop offset="0" style="stop-color:#bfffbf;stop-opacity:1"/><stop offset="1" style="stop-color:#bfffbf;stop-opacity:0"/></linearGradient><linearGradient id="b"><stop offset="0" style="stop-color:#003100;stop-opacity:1"/><stop offset="1" style="stop-color:#008c00;stop-opacity:1"/></linearGradient><linearGradient id="a"><stop offset="0" style="stop-color:#66f515;stop-opacity:1"/><stop offset="1" style="stop-color:#002e00;stop-opacity:1"/></linearGradient><linearGradient xlink:href="#b" id="i" x1="89.091" x2="89.091" y1="103.897" y2="30.849" gradientTransform="translate(0 4)" gradientUnits="userSpaceOnUse"/><linearGradient xlink:href="#c" id="x" x1="83.325" x2="83.325" y1="24.063" y2="89.995" gradientTransform="translate(0 4)" gradientUnits="userSpaceOnUse"/><linearGradient xlink:href="#f" id="y" x1="71.604" x2="71.604" y1="96.884" y2="47.379" gradientUnits="userSpaceOnUse"/><linearGradient xlink:href="#g" id="A" x1="87.533" x2="77.138" y1="74.839" y2="46.277" gradientUnits="userSpaceOnUse"/><linearGradient xlink:href="#g" id="B" x1="83.325" x2="83.325" y1="24.063" y2="69.838" gradientTransform="translate(0 4)" gradientUnits="userSpaceOnUse"/><radialGradient xlink:href="#a" id="w" cx="54.538" cy="77.542" r="48" fx="54.538" fy="99.884" gradientTransform="matrix(1.31172 0 0 .9838 -16.906 1.314)" gradientUnits="userSpaceOnUse"/><radialGradient xlink:href="#d" id="v" cx="52.792" cy="95.459" r="52" fx="53.16" fy="87.081" gradientTransform="matrix(.56466 0 0 .91764 24.424 .144)" gradientUnits="userSpaceOnUse"/><radialGradient xlink:href="#e" id="t" cx="99.766" cy="29.375" r="3.016" fx="99.766" fy="29.375" gradientTransform="matrix(1.96467 0 0 5.97527 -96.241 -146.148)" gradientUnits="userSpaceOnUse"/><radialGradient xlink:href="#e" id="r" cx="99.766" cy="29.375" r="3.016" fx="99.766" fy="29.375" gradientTransform="matrix(1.96467 0 0 5.97527 -96.241 -146.148)" gradientUnits="userSpaceOnUse"/><radialGradient xlink:href="#e" id="p" cx="99.766" cy="29.375" r="3.016" fx="99.766" fy="29.375" gradientTransform="matrix(1.96467 0 0 5.97527 -167.241 -126.148)" gradientUnits="userSpaceOnUse"/><radialGradient xlink:href="#e" id="n" cx="99.766" cy="29.375" r="3.016" fx="99.766" fy="29.375" gradientTransform="matrix(1.96467 0 0 5.97527 -96.241 -146.148)" gradientUnits="userSpaceOnUse"/><radialGradient xlink:href="#f" id="l" cx="99.766" cy="29.375" r="3.016" fx="99.766" fy="29.375" gradientTransform="matrix(1.96467 0 0 5.97527 -167.241 -126.148)" gradientUnits="userSpaceOnUse"/><radialGradient xlink:href="#e" id="j" cx="53.633" cy="51.92" r="52" fx="53.633" fy="51.92" gradientTransform="matrix(1.09614 .08791 -.10023 1.24973 1.06 -18.687)" gradientUnits="userSpaceOnUse"/><filter id="z"><feGaussianBlur stdDeviation=".425"/></filter><filter id="h"><feGaussianBlur stdDeviation=".461"/></filter><filter id="k"><feBlend in2="BackgroundImage" mode="lighten"/></filter><filter id="m" width="1.365" height="1.206" x="-.182" y="-.103"><feGaussianBlur stdDeviation=".458"/></filter><filter id="q" width="1.365" height="1.206" x="-.182" y="-.103"><feGaussianBlur stdDeviation=".458"/></filter><filter id="o" width="1.208" height="1.37" x="-.104" y="-.185"><feGaussianBlur stdDeviation=".458"/></filter><filter id="u" width="1.365" height="1.206" x="-.182" y="-.103"><feGaussianBlur stdDeviation=".458"/></filter><filter id="s" width="1.208" height="1.37" x="-.104" y="-.185"><feGaussianBlur stdDeviation=".458"/></filter></defs><g style="overflow:visible"><path d="M54.394 74.154 28.631 47.75 16 60.698l38.394 39.355L112 41 99.367 28.053z" style="fill:none;stroke:#004d00;stroke-width:8.1;stroke-linecap:round;stroke-linejoin:round;stroke-miterlimit:4;stroke-dasharray:none;stroke-opacity:1;filter:url(#h)"/><path d="M54.394 74.154 28.631 47.75 16 60.698l38.394 39.355L112 41 99.367 28.053z" style="fill:none;stroke:url(#i);stroke-width:8;stroke-linecap:round;stroke-linejoin:round;stroke-miterlimit:4;stroke-dasharray:none;stroke-opacity:1"/><path d="M54.394 74.154 28.631 47.75 16 60.698l38.394 39.355L112 41 99.367 28.053z" style="fill:none;stroke:url(#j);stroke-width:8;stroke-linecap:round;stroke-linejoin:round;stroke-miterlimit:4;stroke-dasharray:none;stroke-opacity:1;opacity:.28571428999999998;filter:url(#k)"/><path d="M28.406 44.031c-.15-.002-.286.017-.437.032a4 4 0 0 0-2.219.968l1.687 9.688c.111-.114.85-.848.938-.938l.375.375 3.031-8.343-.562-.563a4.05 4.05 0 0 0-2.813-1.219" style="opacity:.40952380999999999;fill:url(#l);fill-opacity:1;stroke:none;stroke-width:8;stroke-linecap:round;stroke-linejoin:round;stroke-miterlimit:4;stroke-dasharray:none;stroke-opacity:1;filter:url(#m)" transform="matrix(1 0 0 -1 26 147.75)"/><path d="M99.406 24.031c-.15-.002-.286.017-.437.032a4 4 0 0 0-2.219.968l1.688 9.688c.11-.114.85-.848.937-.938l.375.375 3.031-8.343-.562-.563a4.05 4.05 0 0 0-2.813-1.219" style="opacity:.23809524000000001;fill:url(#n);fill-opacity:1;stroke:none;stroke-width:8;stroke-linecap:round;stroke-linejoin:round;stroke-miterlimit:4;stroke-dasharray:none;stroke-opacity:1;filter:url(#o)" transform="scale(-1 1)rotate(70 18.031 -38.39)"/><path d="M28.406 44.031c-.15-.002-.286.017-.437.032a4 4 0 0 0-2.219.968l1.687 9.688c.111-.114.85-.848.938-.938l.375.375 3.031-8.343-.562-.563a4.05 4.05 0 0 0-2.813-1.219" style="opacity:.77619048000000002;fill:url(#p);fill-opacity:1;stroke:none;stroke-width:8;stroke-linecap:round;stroke-linejoin:round;stroke-miterlimit:4;stroke-dasharray:none;stroke-opacity:1;filter:url(#q)"/><path d="M99.406 24.031c-.15-.002-.286.017-.437.032a4 4 0 0 0-2.219.968l1.688 9.688c.11-.114.85-.848.937-.938l.375.375 3.031-8.343-.562-.563a4.05 4.05 0 0 0-2.813-1.219" style="opacity:.37142857000000001;fill:url(#r);fill-opacity:1;stroke:none;stroke-width:8;stroke-linecap:round;stroke-linejoin:round;stroke-miterlimit:4;stroke-dasharray:none;stroke-opacity:1;filter:url(#s)" transform="rotate(70 96.684 43.543)"/><path d="M99.406 24.031c-.15-.002-.286.017-.437.032a4 4 0 0 0-2.219.968l1.688 9.688c.11-.114.85-.848.937-.938l.375.375 3.031-8.343-.562-.563a4.05 4.05 0 0 0-2.813-1.219" style="fill:url(#t);fill-opacity:1;stroke:none;stroke-width:8;stroke-linecap:round;stroke-linejoin:round;stroke-miterlimit:4;stroke-dasharray:none;stroke-opacity:1;filter:url(#u);opacity:.87142856999999985"/><path d="M54.394 74.154 28.631 47.75 16 60.698l38.394 39.355L112 41 99.367 28.053z" style="fill:none;stroke:url(#v);stroke-width:8;stroke-linecap:round;stroke-linejoin:round;stroke-miterlimit:4;stroke-dasharray:none;stroke-opacity:1;opacity:.28571429"/><path d="M54.394 74.154 28.631 47.75 16 60.698l38.394 39.355L112 41 99.367 28.053z" style="fill:url(#w);fill-opacity:1"/><path d="M99.375 28.063s-35.257 36.14-44.969 46.093c-8.148-8.35-25.781-26.406-25.781-26.406L16 60.688l16.469 16.874h.562c17.53 0 34.137-2.093 49.031-5.843L112 41z" style="fill:url(#x);fill-opacity:1"/><path d="M54.394 74.154 28.631 47.75 16 60.698l38.394 39.355L112 41 99.367 28.053z" style="fill:none;fill-opacity:1;stroke:url(#y);stroke-opacity:1;filter:url(#z)"/><path d="m99.375 28.063-.406.437 12.187 12.281-30 30.219C66.23 74.688 50.1 77.219 32.531 77.219h-.375l.313.344h.562c17.53 0 34.137-2.094 49.032-5.844L112 41z" style="fill:url(#A);fill-opacity:1;opacity:1"/><path d="M99.375 28.063s-35.257 36.14-44.969 46.093c-8.148-8.35-25.781-26.406-25.781-26.406L16 60.688l.5.5L28.625 48.75s17.633 18.056 25.781 26.406l44.969-46.094L111.5 41.5l.5-.5z" style="fill:url(#B);fill-opacity:1"/></g></svg>