<svg xmlns="http://www.w3.org/2000/svg" xmlns:xlink="http://www.w3.org/1999/xlink" width="88" height="88" version="1.0"><defs><linearGradient id="a"><stop offset="0" style="stop-color:black;stop-opacity:1"/><stop offset="1" style="stop-color:black;stop-opacity:0"/></linearGradient><linearGradient id="b" x1="51.999" x2="51.999" y1="0" y2="88.794" gradientUnits="userSpaceOnUse"><stop offset="0" style="stop-color:#740000"/><stop offset="1" style="stop-color:#de0000"/></linearGradient><radialGradient xlink:href="#a" id="c" cx="63.912" cy="115.709" r="63.912" fx="63.912" fy="115.709" gradientTransform="matrix(.68844 0 0 .05674 0 77.808)" gradientUnits="userSpaceOnUse"/></defs><path d="M93.937 82.737A51.76 51.76 0 0 0 104 52c0-28.719-23.281-52-52-52a51.76 51.76 0 0 0-30.737 10.063L21.2 10l-.398.398a52.3 52.3 0 0 0-10.401 10.401L10 21.2l.064.064A51.75 51.75 0 0 0 0 52c0 28.719 23.281 52 52 52a51.76 51.76 0 0 0 30.737-10.063l.064.063.4-.4a52.3 52.3 0 0 0 10.398-10.398l.4-.4zM52 16c19.851 0 36 16.149 36 36a35.8 35.8 0 0 1-5.582 19.219L32.781 21.582A35.8 35.8 0 0 1 52 16m0 72c-19.851 0-36-16.149-36-36a35.77 35.77 0 0 1 5.582-19.218l49.637 49.636A35.8 35.8 0 0 1 52 88" style="fill:url(#b)" transform="matrix(.6923 0 0 .6923 8 8)"/><path d="M88 84.374C88 86.376 68.3 88 44 88S0 86.376 0 84.374c0-2.003 19.7-3.627 44-3.627s44 1.624 44 3.627" style="opacity:.38139535;fill:url(#c);fill-opacity:1;fill-rule:nonzero;stroke:none;stroke-width:0;stroke-linecap:round;stroke-linejoin:round;stroke-miterlimit:4;stroke-dasharray:none;stroke-dashoffset:4;stroke-opacity:1"/></svg>