<svg xmlns="http://www.w3.org/2000/svg" version="1.0" viewBox="0 0 145.82 144.64"><defs><linearGradient id="a" x1="-344.15" x2="-395.85" y1="274.71" y2="425.4" gradientTransform="matrix(-.65718 0 0 .65718 -16.966 114.63)" gradientUnits="userSpaceOnUse"><stop offset="0" style="stop-color:#fff"/><stop offset="1" style="stop-color:#fff;stop-opacity:0"/></linearGradient></defs><g transform="matrix(.9 0 0 .9 -148.36 -279.273)"><rect width="145.82" height="144.64" x="-318.76" y="318.34" rx="39.431" ry="39.431" style="fill-rule:evenodd;fill:#f00a10" transform="scale(-1 1)"/><path d="m554.13 739.6 35.77-35.77c3.75-3.75 5.63-7.9 5.63-12.44-.23-4.09-2.1-7.9-5.63-11.42-3.18-3.18-6.92-4.99-11.24-5.45-4.43-.34-8.63 1.48-12.61 5.45l-35.78 35.78-35.77-35.78c-3.64-3.63-7.73-5.45-12.27-5.45-4.43.34-8.29 2.16-11.58 5.45-2.84 2.84-4.49 6.53-4.95 11.08q-.675 7.155 4.95 12.78l35.77 35.77-35.77 35.78c-3.18 3.18-4.95 7.33-5.29 12.44.34 4.43 2.11 8.23 5.29 11.41 2.95 2.96 6.7 4.77 11.24 5.45 4.43.35 8.63-1.47 12.61-5.45l35.77-35.77 35.78 35.77c3.75 3.75 7.9 5.4 12.44 4.94 4.66-.34 8.46-1.98 11.41-4.94q4.095-4.08 4.95-11.07 1.02-6.81-4.95-12.78z" style="fill:#cb1e0e" transform="translate(-102.64 -95.387)scale(.65718)"/><path d="m552.28 739.6 32.99-32.98c3.45-3.46 5.18-7.28 5.18-11.47-.21-3.77-1.94-7.28-5.18-10.53-2.94-2.93-6.39-4.6-10.37-5.02-4.08-.32-7.96 1.36-11.62 5.02l-32.99 32.99-32.99-32.99c-3.35-3.35-7.12-5.02-11.31-5.02-4.08.31-7.64 1.99-10.68 5.02-2.62 2.62-4.14 6.03-4.56 10.22-.41 4.39 1.1 8.32 4.56 11.78l32.99 32.98-32.99 32.99c-2.93 2.93-4.56 6.75-4.87 11.47.31 4.08 1.94 7.59 4.87 10.52 2.72 2.72 6.18 4.4 10.37 5.03 4.08.31 7.96-1.36 11.62-5.03l32.99-32.99 32.99 32.99q5.175 5.19 11.46 4.56c4.3-.32 7.8-1.84 10.53-4.56 2.51-2.51 4.03-5.92 4.55-10.21.63-4.19-.89-8.11-4.55-11.78z" style="fill:#fff" transform="translate(-102.64 -95.387)scale(.65718)"/><path d="M280.23 324.53h-68.77c-18.2 0-32.86 14.65-32.86 32.86v66.55c.59 14.21 2.86 5.23 7.17-10.51 5.02-18.29 21.35-34.27 41.23-46.25 15.18-9.15 32.17-14.99 63.1-15.54 17.54-.32 15.99-22.58-9.87-27.11" style="fill-rule:evenodd;fill:url(#a)"/></g></svg>