<svg xmlns="http://www.w3.org/2000/svg" version="1.0" viewBox="0 0 30 30"><defs><linearGradient id="a" x1="22.545" x2="13.47" y1="22.205" y2="12.073" gradientUnits="userSpaceOnUse"><stop offset="0" style="stop-color:#fca72a"/><stop offset="1" style="stop-color:#fbfc3e"/></linearGradient></defs><path d="M16.438 1.688c-.411.032-.765.3-.907.687l-3.125 8.406-8.656 2.188a1.052 1.052 0 0 0-.406 1.843l7.031 5.563-.625 8.937a1.053 1.053 0 0 0 1.656.938l7.469-4.938 8.281 3.313a1.054 1.054 0 0 0 1.406-1.25l-2.406-8.594 5.75-6.906a1.053 1.053 0 0 0-.781-1.75l-8.937-.344-4.75-7.594a1.05 1.05 0 0 0-1-.5" style="fill:#f57900" transform="rotate(5.823 22.785 -12.755)"/><path d="m16.594 3.5-3.063 8.312a.35.35 0 0 1-.156.188.4.4 0 0 1-.063.031l-8.53 2.125 6.906 5.469a.35.35 0 0 1 .124.313l-.593 8.781 7.343-4.875a.35.35 0 0 1 .313-.032l8.156 3.282-2.375-8.5a.35.35 0 0 1 .063-.313l5.656-6.781-8.781-.344a.35.35 0 0 1-.282-.156z" style="fill:url(#a)" transform="rotate(5.823 22.785 -12.755)"/></svg>